<?xml version="1.0" encoding="utf-8"?>
<!-- Generator: Adobe Illustrator 23.0.5, SVG Export Plug-In . SVG Version: 6.00 Build 0)  -->
<svg version="1.1" id="Слой_1" xmlns="http://www.w3.org/2000/svg" xmlns:xlink="http://www.w3.org/1999/xlink" x="0px" y="0px"
	 viewBox="0 0 234.7 199.5" style="enable-background:new 0 0 234.7 199.5;" xml:space="preserve">
<style type="text/css">
	.st0{fill:#82D8D5;}
	.st1{fill:#29C1BB;}
	.st2{fill:#15B7A7;}
	.st3{fill:#B1E8E5;}
</style>
<g>
	<path id="XMLID_10254_" class="st0" d="M94.2,127.2c-3.3,0.1-6-2.5-6.1-5.8c-0.1-4.2,3-7.7,7.1-7.8c5.1-0.2,9.4,3.9,9.5,9.1
		c0.2,6.5-4.8,12-11.1,12.2c-8,0.3-14.6-6.1-14.9-14.3c-0.3-10.2,7.4-18.7,17.4-19.1c12.4-0.4,22.8,9.6,23.3,22.3
		c0.5,15.9-11.6,29.2-27.1,29.8c-19.4,0.6-35.7-15-36.3-34.9C55,93.9,74,73.1,98.3,72.2c30.3-1,55.7,23.4,56.8,54.5
		c1.3,38.9-28.4,71.4-66.3,72.7C41.4,201,1.7,162.9,0.1,114.3C-2,53.6,44.4,4,103.6,0.7C146.2-1.6,188.8,22.9,212,59
		c14.3,22.3,21.3,48.7,22.1,75.3c0.4,12.9,2.2,36-5.8,46.3c-7.7,9.9-20.1,15.4-32,17.6c-9.7,1.8-26,0.7-33-7.5
		c-4.3-5-6.9-10.1-13.4-12.1c-4.5-1.4-9.7-0.7-12.7-5.2"/>
	<path id="XMLID_10253_" class="st1" d="M46.3,163.6c5.7,6.4,12.4,11.9,19.9,16.1c4.9,2.8,9.9,5.4,15.1,7.4c4,1.5,7.8,1.1,11.9,1.7
		c13.6,1.9,30.8-2.4,41-11.7c0.5-0.4,1-0.9,1.7-1.1c4.3-1.2-2.5,6.4-3.2,7c-9.5,8.7-21.2,13.2-33.8,15.4c-7.2,1.2-14.5,1.4-21.7,0.6
		c-14.4-1.5-28.3-6.7-40.5-14.5c0,0-36.7-21.6-36.2-74.7c0.2-19.6,3.4-46.5,28.9-74.4c0,0,0.1-0.1,0.1-0.1C40.8,21.4,57,12,74,6.4
		c13.7-4.5,27.1-7.4,41.6-6c17.6,1.7,34.8,6.9,50.2,15.5c29.4,16.3,53.6,44,61.7,77.2c0.9,3.8,2.4,7.4,3.4,11.1
		c0.9,3.4,0.9,6.8,1.9,10.2c0.2,0.7,0.3,1.6-0.2,2c-0.8,0.7-2-0.2-2.3-1.2c-2.3-7.2-3.9-14.9-7.1-21.7c-2.6-5.6-5.6-11.1-9-16.3
		c-6.7-10.4-14.8-19.8-24.2-27.8c-11-9.5-22.7-18.3-35.4-25.4c-9.4-5.2-18.1-9.2-29-10.9c-10.8-1.7-22-1.4-32.7,1.5
		C76,19.2,60.1,28.1,48.4,41.1C27.3,64.5,20.1,95,27.1,125.5C30.3,139.5,36.8,152.8,46.3,163.6z"/>
	<path id="XMLID_10252_" class="st1" d="M112.6,72.8c0,0,34.8-2.4,53.8,32.2c1.3,2.5,2.7,4.9,3.9,7.5c5.1,10.8,7.5,22.4,6.8,34.4
		c-0.5,8.5-2.4,16.9-4.9,25c-1.7,5.4-2.7,11.3-6.1,15.9c-0.7,1-2,1.8-3.2,1.6c-2.1-0.3-2.8-2.9-4-4.7c-1.9-2.9-5.5-4.1-8.8-5.1
		c-1.9-0.6-11.9-2.3-11.7-4.5c0.1-0.7,3.5-3.1,4.1-4.1c3.1-4.4,4.9-9.5,7.5-14.2l3.6-14.6l1.7-17.8l-3.7-16.2
		C151.5,108.3,144.8,87.1,112.6,72.8z"/>
	<path id="XMLID_10251_" class="st1" d="M96.1,71.8c3.5-0.8,7.2-0.8,10.8-0.2c2.6,0.5,4.7,1,7.3,1.2c2,0.2,4.8,2.5,6.3,2.5
		c-14.1,0.3-26.7-1-39.4,6.7c-10.6,6.4-18.5,17.5-20,29.8c-1.3,10.7,3,24.8,12.7,30.7c8.7,5.3,17.6,9.6,28.1,9c0,0-12.5,6-27.8-2.8
		c0,0-14.3-7.4-17.6-22.7c0,0-3.2-12.9,4.4-30.9c3.1-6.4,9.3-11.8,15.2-15.6c5.9-3.7,12.6-5.9,19.4-7.6
		C95.8,71.9,95.9,71.8,96.1,71.8z"/>
	<path id="XMLID_10250_" class="st1" d="M93.6,153.7c0,0,12.7,0.1,20.5-4c8.3-4.3,16.2-14.8,13.1-33.4c-1.7-10.2-15.2-23-31.1-16.2
		c0,0,13.2,0.6,19.4,10.9c0,0,7.6,10.8,2.9,21.5C118.4,132.6,110.9,147,93.6,153.7z"/>
	<path class="st2" d="M147.4,169.8c27.8,14.8,62.5,7.3,86.2-11.4c2.5-2-1-5.5-3.5-3.5c-21.9,17.2-54.5,24.3-80.2,10.6
		C147.1,164,144.6,168.3,147.4,169.8L147.4,169.8z"/>
	<path class="st2" d="M155.8,147.2c26.7,11.2,58.7,4.1,78.2-16.9c2.1-2.3-1.3-5.7-3.4-3.4c-18.5,19.8-48.3,26.1-73.5,15.6
		C154.2,141.3,152.9,146,155.8,147.2L155.8,147.2z"/>
	<path class="st2" d="M111.8,75.3c5.9-6.8,10.3-15.5,12.7-24.1c5.1-18,0.1-35.5-11.5-49.8c-2-2.5-5.5,1-3.5,3.5
		c11.1,13.6,15,30.4,9.5,47.2c-2.3,7-5.9,14.1-10.8,19.7C106.3,74.2,109.7,77.7,111.8,75.3L111.8,75.3z"/>
	<path class="st2" d="M90.9,74.5c-1.2-24.4-13.1-58.6-43.2-55c-3.2,0.4-3.2,5.4,0,5c27.1-3.3,37,28.2,38.1,50
		C86,77.7,91.1,77.7,90.9,74.5L90.9,74.5z"/>
	<path class="st2" d="M63.5,136.7c-7.6,2.2-15,6.3-20.8,11.7c-11,10.2-11.2,24-4.1,36.6c1.6,2.8,5.8,0.3,4.3-2.5
		c-6.7-11.8-5.5-23.6,5.2-32.2c4.8-3.9,10.8-7,16.8-8.8C67.9,140.6,66.6,135.8,63.5,136.7L63.5,136.7z"/>
	<path class="st2" d="M78.5,150.1c-4.2,5.5-7.2,12.4-8.2,19.2c-2,13.2,5.3,23.3,16.8,29.1c2.8,1.4,5.3-2.8,2.5-4.2
		c-10.9-5.5-17.1-14.8-13.9-27c1.3-5.2,3.8-10.3,7-14.6C84.6,150.1,80.4,147.6,78.5,150.1L78.5,150.1z"/>
	<path class="st2" d="M97.9,153.5c0.6,17.1,9.4,38,30,33.5c3.1-0.7,1.8-5.4-1.3-4.7c-17,3.7-23.3-15.2-23.8-28.8
		C102.6,150.4,97.8,150.4,97.9,153.5L97.9,153.5z"/>
	<path class="st2" d="M112.3,140.9c8.7,14.1,25.4,19,40.4,12.2c2.9-1.3,0.4-5.6-2.5-4.3c-12.5,5.6-26.4,1.3-33.6-10.4
		C114.9,135.7,110.6,138.2,112.3,140.9L112.3,140.9z"/>
	<path class="st2" d="M119.2,124.1c13.3,8.5,26.9-4.3,33.3-15.1c1.6-2.7-2.7-5.2-4.3-2.5c-4.9,8.4-15.7,20.3-26.5,13.3
		C119,118.1,116.5,122.4,119.2,124.1L119.2,124.1z"/>
	<path class="st2" d="M117.1,110.5c4.6-2.8,9.2-5.7,12.5-10.1c3.3-4.3,4.8-9.6,6.1-14.7c0.8-3.1-4-4.4-4.8-1.3
		c-1.1,4.5-2.3,9.2-5.2,13c-2.9,3.8-7.1,6.4-11.1,8.8C111.9,107.9,114.4,112.2,117.1,110.5L117.1,110.5z"/>
	<path class="st2" d="M105.2,101.2c10.2-7.6,14-22.8,0.5-29.2c-2.8-1.3-5.2,2.8-2.4,4.1c10,4.7,7.1,15.3-0.5,20.9
		C100.4,98.9,102.8,103.1,105.2,101.2L105.2,101.2z"/>
	<path class="st2" d="M95.8,102.4c1.7-3.3,2.5-7.4,1.7-11c-1.9-8.5-11.2-11-18.7-11.8c-3-0.3-2.9,4.3,0,4.6
		c5.6,0.6,13.6,2.4,14.3,9.2c0.2,2.3-0.5,5.1-1.4,6.7C90.4,102.7,94.4,105,95.8,102.4L95.8,102.4z"/>
	<path class="st2" d="M79.3,122.4c-3.9,0.7-8.2,2.3-11.2,5c-5.9,5.3-2.8,12.3,1.8,17.2c2.2,2.3,5.7-1.2,3.5-3.5
		c-3.7-3.9-5.6-8.2-0.2-11.3c2.3-1.3,4.9-2.2,7.5-2.7C83.8,126.6,82.4,121.9,79.3,122.4L79.3,122.4z"/>
	<path class="st2" d="M90.6,131.8c-5,5.9-3.1,14.4,0.5,20.4c1.6,2.7,5.9,0.3,4.3-2.5c-2-3.4-3.5-7.2-2.6-11.2c0.2-1.1,1.2-3,1.4-3.2
		C96.2,132.9,92.7,129.4,90.6,131.8L90.6,131.8z"/>
	<path class="st2" d="M100.6,127.1c-0.9,2.6-1.1,5.9,0,8.5c2.6,6.5,10.6,5,15.8,3.3c3-1,1.7-5.8-1.3-4.8c-2.4,0.8-5.5,1.9-8.1,1.2
		c-1.3-0.4-1.7-1-2-2.1c-0.4-1.5-0.2-3.1,0.4-4.8C106.4,125.4,101.6,124.1,100.6,127.1L100.6,127.1z"/>
	<path class="st2" d="M70.2,84.3c-8.2-7.8-18.2-14.7-28.8-18.8c-7-2.7-15.1-4.1-22.3-1.4c-8.7,3.3-13.5,11.5-16.4,20
		c-1.2,3.5,4.4,5.1,5.6,1.5c2.6-7.5,7.1-15.2,15.5-16.8c6.6-1.3,13.6,1,19.5,3.8c8.3,4,16.2,9.5,22.8,15.8
		C68.8,91,72.9,86.9,70.2,84.3L70.2,84.3z"/>
	<path class="st2" d="M56.7,117.2c-7.8-3.4-16.9-5.3-25.4-4.6C14.7,114,7.1,127.1,6.2,142.8c-0.2,3.1,4.7,3.1,4.9,0
		c0.4-7.4,2.1-15.6,8-20.6c4.2-3.6,9.8-4.8,15.2-4.9c4.7,0,9.3,0.8,13.8,2c1.6,0.4,3.2,0.9,4.8,1.5c0.4,0.1,2.5,1,1.4,0.5
		C57.1,122.6,59.6,118.4,56.7,117.2L56.7,117.2z"/>
	<path class="st2" d="M101.8,120.3c2.1,2,4.9,3.9,7.8,4.5c6.7,1.2,8.5-6,8.7-11.2c0.1-3.2-4.8-3.2-4.9,0c-0.1,1.8,0,5-1.6,6.3
		c-0.4,0.3-1.3,0.2-2.2-0.2c-1.7-0.7-3-1.7-4.2-2.8C103,114.6,99.5,118.1,101.8,120.3L101.8,120.3z"/>
	<path class="st2" d="M101.3,115.3c1.7-1.9,3-4.3,3.5-6.8c0.9-5.1-2.9-8.2-7.4-9.4c-3.1-0.9-4.4,3.9-1.3,4.8
		c2.6,0.7,4.6,1.9,3.6,4.8c-0.3,0.8-0.8,1.6-1.3,2.4c-0.1,0.2-0.7,1-0.3,0.5c-0.1,0.1-0.2,0.2-0.3,0.3
		C95.7,114.2,99.2,117.7,101.3,115.3L101.3,115.3z"/>
	<path class="st2" d="M81.5,118.7c-1.1-3.3-3.3-6.5-6.1-8.6c-6.1-4.5-13.3-1.9-18.9,2.1c-2.6,1.8-0.1,6.1,2.5,4.3
		c4.3-3.1,9.9-5.8,14.4-1.7c1.5,1.4,2.9,3.6,3.4,5.2C77.7,123,82.5,121.7,81.5,118.7L81.5,118.7z"/>
	<path class="st2" d="M86.7,109.1c-0.3-4.2-1.6-8.6-4.1-12c-5-6.8-13-5.9-19.8-2.5c-2.8,1.4-0.3,5.6,2.5,4.2
		c5.4-2.7,11.2-3.3,14.4,2.6c1.2,2.3,2.1,5.7,2.2,7.6C82.1,112.2,87,112.2,86.7,109.1L86.7,109.1z"/>
	<path id="XMLID_10249_" class="st1" d="M92.3,102.9c0.5,0.4,0.8,1,0.8,1.7c0.1,2.1-2.2,3.5-3.6,5c-1.1,1.2-1.8,2.9-1.6,4.6
		c0.3,1.6,1.6,3.2,3.2,3.3c2.7,0.3,4.8-2.7,7.5-3.2c2.4-0.5,5,1.3,5.9,3.6s0.7,5,0,7.3c-1.2,3.9-4,7.6-7.9,8.7
		c-3.1,0.8-6.4-0.1-9.3-1.6c-4-2.2-7.4-5.7-8.5-10.1c-1.5-5.6,3.5-17.7,9.2-20.1C89.4,101.6,91.2,101.9,92.3,102.9z"/>
	<path class="st3" d="M137.7,33.6c19.2,6.4,36.1,19.3,49.6,34.2c13.4,14.8,24.9,33.5,27.2,53.8c0.7,6.3,10.7,6.4,10,0
		c-2.6-22.6-14.2-42.9-29.1-59.7c-14.8-16.7-33.7-30.8-55-37.9C134.2,22,131.6,31.6,137.7,33.6L137.7,33.6z"/>
	<path class="st2" d="M128.6,77.2c8.3-2,16.4-6.7,22.9-12.3c14.1-12.1,18.5-29.8,16-47.7c-0.4-3-5-1.7-4.5,1.3
		c2.3,16.9-2.5,33.3-16.1,44.2c-5.6,4.5-12.5,8.3-19.6,10C124.4,73.3,125.6,77.9,128.6,77.2L128.6,77.2z"/>
	<path class="st2" d="M147.9,98c25.4-2.4,56.8-15.6,60.1-44.1c0.4-3-4.4-3-4.8,0c-3,25.5-32.9,37.2-55.4,39.3
		C144.9,93.5,144.8,98.3,147.9,98L147.9,98z"/>
	<path class="st2" d="M156.3,117.3c22.8,3.8,54.8,3,70.4-16.6c1.9-2.4-1.5-5.8-3.4-3.4c-14.5,18.2-44.5,18.9-65.7,15.4
		C154.5,112.1,153.2,116.8,156.3,117.3L156.3,117.3z"/>
</g>
</svg>
